<mxfile host="app.diagrams.net" modified="2024-07-09T15:48:04.989Z" agent="Mozilla/5.0 (Windows NT 10.0; Win64; x64) AppleWebKit/537.36 (KHTML, like Gecko) Chrome/126.0.0.0 Safari/537.36" etag="9OXMq8IJ4LnIrF3Oepg2" version="24.6.4" type="device">
  <diagram name="Pagina-1" id="UxYth78bAkBBL9X0ALRc">
    <mxGraphModel dx="1674" dy="754" grid="0" gridSize="10" guides="1" tooltips="1" connect="1" arrows="1" fold="1" page="1" pageScale="1" pageWidth="1169" pageHeight="827" background="none" math="0" shadow="0">
      <root>
        <mxCell id="0" />
        <mxCell id="1" parent="0" />
        <mxCell id="kHArmQkUYCxq-X_Lyo4I-39" value="" style="rounded=1;whiteSpace=wrap;html=1;" parent="1" vertex="1">
          <mxGeometry x="1009" y="60" width="125" height="284" as="geometry" />
        </mxCell>
        <mxCell id="kHArmQkUYCxq-X_Lyo4I-9" value="&lt;b&gt;ASP.NET&lt;/b&gt;&lt;div&gt;(Web page)&lt;/div&gt;" style="ellipse;whiteSpace=wrap;html=1;" parent="1" vertex="1">
          <mxGeometry x="710" y="226" width="120" height="80" as="geometry" />
        </mxCell>
        <mxCell id="kHArmQkUYCxq-X_Lyo4I-12" value="Login" style="ellipse;whiteSpace=wrap;html=1;" parent="1" vertex="1">
          <mxGeometry x="1024" y="71" width="102" height="72" as="geometry" />
        </mxCell>
        <mxCell id="kHArmQkUYCxq-X_Lyo4I-13" value="Starting ride" style="ellipse;whiteSpace=wrap;html=1;" parent="1" vertex="1">
          <mxGeometry x="1024" y="158" width="102" height="72" as="geometry" />
        </mxCell>
        <mxCell id="kHArmQkUYCxq-X_Lyo4I-14" value="Drive managing" style="ellipse;whiteSpace=wrap;html=1;" parent="1" vertex="1">
          <mxGeometry x="1024" y="245" width="102" height="72" as="geometry" />
        </mxCell>
        <mxCell id="kHArmQkUYCxq-X_Lyo4I-35" value="&amp;nbsp;MQTT" style="edgeStyle=orthogonalEdgeStyle;rounded=0;orthogonalLoop=1;jettySize=auto;html=1;exitX=1;exitY=0.5;exitDx=0;exitDy=0;entryX=0;entryY=0.5;entryDx=0;entryDy=0;entryPerimeter=0;" parent="1" source="kHArmQkUYCxq-X_Lyo4I-32" edge="1">
          <mxGeometry relative="1" as="geometry">
            <mxPoint x="585" y="264" as="targetPoint" />
            <mxPoint as="offset" />
          </mxGeometry>
        </mxCell>
        <mxCell id="kHArmQkUYCxq-X_Lyo4I-32" value="" style="rounded=1;whiteSpace=wrap;html=1;" parent="1" vertex="1">
          <mxGeometry x="235" y="183" width="112" height="107" as="geometry" />
        </mxCell>
        <mxCell id="kHArmQkUYCxq-X_Lyo4I-41" value="QR" style="rounded=1;whiteSpace=wrap;html=1;" parent="1" vertex="1">
          <mxGeometry x="805.5" y="33" width="77" height="52" as="geometry" />
        </mxCell>
        <mxCell id="kHArmQkUYCxq-X_Lyo4I-43" value="" style="endArrow=classic;html=1;rounded=0;exitX=0.5;exitY=1;exitDx=0;exitDy=0;entryX=0;entryY=0.5;entryDx=0;entryDy=0;" parent="1" source="kHArmQkUYCxq-X_Lyo4I-41" target="kHArmQkUYCxq-X_Lyo4I-13" edge="1">
          <mxGeometry width="50" height="50" relative="1" as="geometry">
            <mxPoint x="842" y="168" as="sourcePoint" />
            <mxPoint x="892" y="118" as="targetPoint" />
            <Array as="points">
              <mxPoint x="844" y="109" />
            </Array>
          </mxGeometry>
        </mxCell>
        <mxCell id="kHArmQkUYCxq-X_Lyo4I-44" value="" style="endArrow=none;html=1;rounded=0;entryX=0;entryY=0.5;entryDx=0;entryDy=0;exitX=1;exitY=0.5;exitDx=0;exitDy=0;" parent="1" source="kHArmQkUYCxq-X_Lyo4I-9" target="kHArmQkUYCxq-X_Lyo4I-39" edge="1">
          <mxGeometry width="50" height="50" relative="1" as="geometry">
            <mxPoint x="937" y="184" as="sourcePoint" />
            <mxPoint x="987" y="134" as="targetPoint" />
          </mxGeometry>
        </mxCell>
        <mxCell id="kHArmQkUYCxq-X_Lyo4I-45" value="Log file for no connectivity" style="rounded=1;whiteSpace=wrap;html=1;" parent="1" vertex="1">
          <mxGeometry x="231" y="343" width="120" height="60" as="geometry" />
        </mxCell>
        <mxCell id="kHArmQkUYCxq-X_Lyo4I-46" value="" style="endArrow=classic;html=1;rounded=0;exitX=0.5;exitY=1;exitDx=0;exitDy=0;entryX=0.5;entryY=0;entryDx=0;entryDy=0;" parent="1" source="kHArmQkUYCxq-X_Lyo4I-32" target="kHArmQkUYCxq-X_Lyo4I-45" edge="1">
          <mxGeometry width="50" height="50" relative="1" as="geometry">
            <mxPoint x="333" y="346" as="sourcePoint" />
            <mxPoint x="383" y="296" as="targetPoint" />
          </mxGeometry>
        </mxCell>
        <mxCell id="_KcxPummnujgaCDl31UZ-6" value="" style="endArrow=classic;startArrow=classic;html=1;rounded=0;exitX=0.5;exitY=0;exitDx=0;exitDy=0;entryX=0.5;entryY=1;entryDx=0;entryDy=0;entryPerimeter=0;" edge="1" parent="1" source="_KcxPummnujgaCDl31UZ-25" target="_KcxPummnujgaCDl31UZ-23">
          <mxGeometry width="50" height="50" relative="1" as="geometry">
            <mxPoint x="593" y="233" as="sourcePoint" />
            <mxPoint x="600.5" y="187" as="targetPoint" />
          </mxGeometry>
        </mxCell>
        <mxCell id="_KcxPummnujgaCDl31UZ-9" value="" style="shape=image;html=1;verticalAlign=top;verticalLabelPosition=bottom;labelBackgroundColor=#ffffff;imageAspect=0;aspect=fixed;image=https://cdn1.iconfinder.com/data/icons/unicons-line-vol-6/24/telegram-128.png" vertex="1" parent="1">
          <mxGeometry x="578" y="418" width="93" height="93" as="geometry" />
        </mxCell>
        <mxCell id="_KcxPummnujgaCDl31UZ-10" value="" style="endArrow=classic;html=1;rounded=0;exitX=0.429;exitY=1;exitDx=0;exitDy=0;exitPerimeter=0;entryX=0.5;entryY=0;entryDx=0;entryDy=0;" edge="1" parent="1" source="_KcxPummnujgaCDl31UZ-25" target="_KcxPummnujgaCDl31UZ-9">
          <mxGeometry width="50" height="50" relative="1" as="geometry">
            <mxPoint x="612.5" y="311" as="sourcePoint" />
            <mxPoint x="526" y="390" as="targetPoint" />
          </mxGeometry>
        </mxCell>
        <mxCell id="_KcxPummnujgaCDl31UZ-13" value="" style="endArrow=classic;startArrow=classic;html=1;rounded=0;exitX=0.5;exitY=0;exitDx=0;exitDy=0;entryX=0.865;entryY=0.953;entryDx=0;entryDy=0;entryPerimeter=0;" edge="1" parent="1" source="kHArmQkUYCxq-X_Lyo4I-9" target="_KcxPummnujgaCDl31UZ-23">
          <mxGeometry width="50" height="50" relative="1" as="geometry">
            <mxPoint x="618" y="316" as="sourcePoint" />
            <mxPoint x="646" y="177" as="targetPoint" />
          </mxGeometry>
        </mxCell>
        <mxCell id="_KcxPummnujgaCDl31UZ-15" value="" style="shape=image;html=1;verticalAlign=top;verticalLabelPosition=bottom;labelBackgroundColor=#ffffff;imageAspect=0;aspect=fixed;image=https://cdn1.iconfinder.com/data/icons/fruit-136/64/Fruit_iconfree_Filled_Outline_raspberry-healthy-organic-food-fruit_icon-128.png" vertex="1" parent="1">
          <mxGeometry x="248" y="192" width="86" height="86" as="geometry" />
        </mxCell>
        <mxCell id="_KcxPummnujgaCDl31UZ-16" value="Telegram" style="text;html=1;align=center;verticalAlign=middle;whiteSpace=wrap;rounded=0;" vertex="1" parent="1">
          <mxGeometry x="594.5" y="507" width="60" height="30" as="geometry" />
        </mxCell>
        <mxCell id="_KcxPummnujgaCDl31UZ-23" value="" style="verticalLabelPosition=bottom;html=1;verticalAlign=top;align=center;strokeColor=none;fillColor=#00BEF2;shape=mxgraph.azure.sql_database;" vertex="1" parent="1">
          <mxGeometry x="605.12" y="90" width="50.75" height="64" as="geometry" />
        </mxCell>
        <mxCell id="_KcxPummnujgaCDl31UZ-24" value="Local script that simulate the edge" style="text;html=1;align=center;verticalAlign=middle;whiteSpace=wrap;rounded=0;" vertex="1" parent="1">
          <mxGeometry x="235" y="143" width="119" height="30" as="geometry" />
        </mxCell>
        <mxCell id="_KcxPummnujgaCDl31UZ-25" value="" style="shape=image;verticalLabelPosition=bottom;labelBackgroundColor=default;verticalAlign=top;aspect=fixed;imageAspect=0;image=data:image/png,iVBORw0KGgoAAAANSUhEUgAABHQAAAKACAYAAAD93y+DAAAACXBIWXMAAA7EAAAOxAGVKw4bAAAgAElEQVR42uzdeZzddX3v8feZfclkMjPZ95CVsARC2IWA4IrWXZRK9Vbrclt722q59tq63Vtra3tdWlurbVUEqnXD2taKVhEhBJBAyEYgISHbZJ8sk0xmPfcP76O39iqehCzzS57PP+H7OzPnc34zc84rv6VULpfLAQAAAKAwqowAAAAAoFgEHQAAAICCEXQAAAAACkbQAQAAACgYQQcAAACgYAQdAAAAgIIRdAAAAAAKRtABAAAAKBhBBwAAAKBgBB0AAACAghF0AAAAAApG0AEAAAAoGEEHAAAAoGAEHQAAAICCEXQAAAAACkbQAQAAACgYQQcAAACgYAQdAAAAgIIRdAAAAAAKRtABAAAAKBhBBwAAAKBgBB0AAACAghF0AAAAAApG0AEAAAAoGEEHAAAAoGAEHQAAAICCEXQAAAAACkbQAQAAACgYQQcAAACgYAQdAAAAgIIRdAAAAAAKRtABAAAAKBhBBwAAAKBgBB0AAACAghF0AAAAAApG0AEAAAAoGEEHAAAAoGAEHQAAAICCEXQAAAAACkbQAQAAACgYQQcAAACgYAQdAAAAgIIRdAAAAAAKRtABAAAAKBhBBwAAAKBgBB0AAACAghF0AAAAAApG0AEAAAAoGEEHAAAAoGAEHQAAAICCEXQAAAAACkbQAQAAACgYQQcAAACgYAQdAAAAgIIRdAAAAAAKRtABAAAAKBhBBwAAAKBgBB0AAACAghF0AAAAAApG0AEAAAAoGEEHAAAAoGAEHQAAAICCEXQAAAAACkbQAQAAACgYQQcAAACgYAQdAAAAgIIRdAAAAAAKRtABAAAAKBhBBwAAAKBgBB0AAACAghF0AAAAAApG0AEAAAAoGEEHAAAAoGAEHQAAAICCEXQAAAAACkbQAQAAACgYQQcAAACgYAQdAAAAgIIRdAAAAAAKRtABAAAAKBhBBwAAAKBgBB0AAACAghF0AAAAAApG0AEAAAAoGEEHAAAAoGAEHQAAAICCqTECgGOz+st/n9X/8CWDAIBjNP+1r8v8G19vEADHQNABOEYHNm/OliX3GQQAHKPJl19pCADHyClXAAAAAAUj6AAAAAAUjKADAAAAUDCCDgAAAEDBCDoAAAAABSPoAAAAABSMoAMAAABQMIIOAAAAQMEIOgAAAAAFI+gAAAAAFIygAwAAAFAwgg4AAABAwQg6AAAAAAUj6AAAAAAUjKADAAAAUDCCDgAAAEDBCDoAAAAABSPoAAAAABSMoAMAAABQMIIOAAAAQMEIOgAAAAAFI+gAAAAAFIygAwAAAFAwgg4AAABAwQg6AAAAAAUj6AAAAAAUjKADAAAAUDCCDgAAAEDBCDoAAAAABSPoAAAAABSMoAMAAABQMIIOAAAAQMEIOgAAAAAFI+gAAAAAFIygAwAAAFAwgg4AAABAwQg6AAAAAAUj6AAAAAAUjKADAAAAUDCCDgAAAEDBCDoAAAAABSPoAAAAABSMoAMAAABQMIIOAAAAQMEIOgAAAAAFI+gAAAAAFIygAwAAAFAwgg4AAABAwQg6AAAAAAUj6AAAAAAUjKADAAAAUDCCDgAAAEDBCDoAAAAABSPoAAAAABSMoAMAAABQMIIOAAAAQMEIOgAAAAAFI+gAAAAAFIygAwAAAFAwgg4AAABAwQg6AAAAAAUj6AAAAAAUjKADAAAAUDCCDgAAAEDBCDoAAAAABSPoAAAAABSMoAMAAABQMIIOAAAAQMEIOgAAAAAFI+gAAAAAFIygAwAAAFAwgg4AAABAwQg6AAAAAAUj6AAAAAAUjKADAAAAUDCCDgAAAEDBCDoAAAAABSPoAAAAABSMoAMAAABQMIIOAAAAQMEIOgAAAAAFI+gAAAAAFIygAwAAAFAwgg4AAABAwQg6AAAAAAUj6AAAAAAUjKADAAAAUDCCDgAAAEDBCDoAAAAABSPoAAAAABSMoAMAAABQMIIOAAAAQMEIOgAAAAAFI+gAAAAAFIygAwAAAFAwgg4AAABAwQg6AAAAAAUj6AAAAAAUjKADAAAAUDCCDgAAAEDBCDoAAAAABSPoAAAAABSMoAMAAABQMIIOAAAAQMEIOgAAAAAFI+gAAAAAFIygAwAAAFAwgg4AAABAwQg6AAAAAAUj6AAAAAAUjKADAAAAUDCCDgAAAEDBCDoAAAAABSPoAAAAABSMoAMAAABQMIIOAAAAQMEIOgAAAAAFI+gAAAAAFIygAwAAAFAwgg4AAABAwQg6AAAAAAUj6AAAAAAUjKADAAAAUDCCDgAAAEDBCDoAAAAABSPoAAAAABSMoAMAAABQMIIOAAAAQMEIOgAAAAAFI+gAAAAAFIygAwAAAFAwgg4AAABAwQg6AAAAAAUj6AAAAAAUjKADAAAAUDCCDgAAAEDBCDoAAAAABSPoAAAAABSMoAMAAABQMIIOAAAAQMEIOgAAAAAFI+gAAAAAFIygAwAAAFAwgg4AAABAwQg6AAAAAAUj6AAAAAAUjKADAAAAUDCCDgAAAEDBCDoAAAAABSPoAAAAABSMoAMAAABQMIIOAAAAQMEIOgAAAAAFI+gAAAAAFIygAwAAAFAwgg4AAABAwQg6AAAAAAUj6AAAAAAUjKADAAAAUDCCDgAAAEDBCDoAAAAABSPoAAAAABSMoAMAAABQMIIOAAAAQMEIOgAAAAAFI+gAAAAAFIygAwAAAFAwgg4AAABAwQg6AAAAAAUj6AAAAAAUjKADAAAAUDCCDgAAAEDBCDoAAAAABSPoAAAAABSMoAMAAABQMIIOAAAAQMEIOgAAAAAFI+gAAAAAFIygAwAAAFAwgg4AAABAwQg6AAAAAAUj6AAAAAAUjKADAAAAUDCCDgAAAEDBCDoAAAAABSPoAAAAABSMoAMAAABQMIIOAAAAQMEIOgAAAAAFI+gAAAAAFIygAwAAAFAwgg4AAABAwQg6AAAAAAUj6AAAAAAUjKADAAAAUDCCDgAAAEDBCDoAAAAABSPoAAAAABSMoAMAAABQMIIOAAAAQMEIOgAAAAAFI+gAAAAAFIygAwAAAFAwgg4AAABAwQg6AAAAAAUj6AAAAAAUjKADAAAAUDCCDgAAAEDBCDoAAAAABSPoAAAAABRMjREAABRfKUljW3uaJ0zIxLnnZtzFizLmggvSPHFC6lpGpqap6YydzWBfb/oPHszBTZvT9cQT2blsWbaseCQHNm5MT9felO0+ABSQoAMAUHC1jY0ZPXNWpi2+LjNf+tKMWbDAUP6D6rr6VHfUp6FjdMZceGHm3HhjurdsyarPfS4b7/l+up5+OkcOHjAoAApF0AEAKKhSkqaO0Zly6eW5+F3vTtucuamq8fauEiMmT87Fv/d7mfXKV2bl5z+XJ779Tzm8Z7ejdQAoDH/xAQAKqKpUlUkLF+XcX3ljpl13fRo6OgzlaGdYU5OOc87JlR/8UMZffHFW3fqFbHtkWQaGBgwHgGFP0AEAKJiqUlXaJ0/Lot/4zUxavDg1jY2G8mzeEDc1ZeZLfykNraNS9Vd/mU0P3p+h8pDBADC83w8YAQBAcZSSjJk1O4s/8ieZ+rzniTnHSU1jY6Zef32e86H/mTGzZqdkJAAMc4IOAECBjJw8JQve+rZMvPKKlKqrDeQ4KlVXp/3ss7PgrW/LyMlTDASAYU3QAQAokBnPWZyZL/mlVNfXG8aJeHNcW5uZL/mlzLhycepHtBgIAMP3b5YRAAAUQ02plEv/x3tTP2qUYZxA9aNG5dL3vjdj5s0zDACGLUEHAKAgznnFa9M4ZoxBnASNY8Zk5nUvMAgAhi13uQIAKIC6uoZc9K53HdU2vV1d6d62LX0HDmTwDL5rU1WplNrGpoycNi11ra0pVVX2b5pzXve63P+xj6avr9cOCMCwI+gAABTA+JnzMvKssypef2TPnqz5+zuy7s47s2fNmvQO9aV8Bs6tlKS2qiatk6dm/s03Z8YLX5SR06alqrb2F27bPH58xs+cl01rltsBARh2nHIFAFAAU657bsVrB44cyaovfC73fvhD2bpqeY6coTEnScpJ+oYGsmvTU7n3wx/Ksk99Mgc2bTqKuV9n5wNgWBJ0AAAKYNLiqyteu+5rX8uSP/3jDJbLBvcfDJbLWfmlO7Lm9tsqn/s1iw0OgGFJ0AEAKICR06dXvHbNrV8Uc36OoSQbv3NXxetbj2LuAHAyCToAAAXQ0NFe8dpda1Ya2DPoenrDUcy9w8AAGJYEHQCAAqhpaKx4bU//EQN7Bn2DfRWvrW5oSMnIABiGBB0AgCIoVZ4VnGwFAKc/ty0HABjGaktVqW8cYRAAwE8RdAAATrHmUn0mXn5Z2uafk1FzZqV12vQ0jR+fpnFjUz+y9aiOzgEAzgyCDgDASVBKUtfcnKYx49I6bkLGnXd+xi5cmPGXXZbmCRMMCAA4KoIOAMAJVCqVUtfYlPaZMzPunPMz7brrM+Xaa1PT3Gw4AMAxE3QAAE6QuobGjJo+I5MWXJTz3v7WtM2ek1J1tcEAAM+aoAMAcAJ0TDsr5958c6Zf//yMmjMnJdfBAQCOI0EHAOA4KiUZd/6CXPSWd2TGS1+SmoYGQwEAjjtBBwDgOKlOVaZfd13m33hTZr70pQYCAJwwgg4AwHFQW12bi3/9nZn3+psyYsoUAwEATihBBwDgWaqtqs3cl7ws83/ljWmeMCGlqipDAQBOKO82AACehepUZeYLXpgF7/ivYg4AcNI4QgcA4BiVkpzzutfnknf9bkZMnnzcHre/uzuHOrfl0LbOHNy8KYe3dWbhLbcYOADw7wQdAIBj1HbWzJz3pl991jGnd/++rPvGN7Lzx8uy69Fl2fXUk+kvD/3UmoW/+7uJW58DAP+XoAMAcJRKKaV14uRc/NZ3ZMyCBUe9/ZE9e7Jv3bpsvX9J1t/5zWx/YlWGyuVn3KY8OJBSTW1Fj1+dUgZT9kL9HFWpPIyVh4YMDIBhSdABADhKdU3NmX7lVZn9mtce1XZD/f3p3rIlT9z59az54u3p6tySoVQWDPq6u1M/qq2itS2t7dm3f48X6udoam6peG3/oW5pDIBhyVX7AACO0rgLLsh5b397apqaKt5m4PDh7Fj2cB74oz/K0v/9p9nTuanimJMkh3fuqnjt9Oc934v0DMYvWlT53HfsNDAAhiVH6AAAHIXaUlUu+Y3fTMf8+RVv03/oUFbfcXtW3vaF7H5i7TEd8bHzwQfTNmdORWsveve709W5JU/f9yMv2H8y7tzzc/5b31bx+h0PPmRoAAxLjtABADgKMxY/NxOuvLLi9QNHjqTzwQfy2Bf+LruOMeYkybYlSype2zJtWi571y2Z86IbMmrcxNSc4W/5qlOVEa3tmfOiG3Lxb/y3jF90ccXbdi65z04PwLDkCB0AgAo1NY7Iwt/+nVTX1Ve0fqi/P7tXrsyjn/6r7F2/7ll97U3335eBw4dS09Rc0foJl1+eupEjs2vZI+neuT0DOXMv7ludqjS2jsqEyy/PqFmzUl1f2es32NubTUvuteMDMCwJOgAAFbrslv+e8RdXfnTHnlWrcu/v/V62rnzkWV9Yd9/2rVn3ta9n3s03V7xNxznnpOOcc7xwx2jrj36Urs4tBgHAsOSUKwCACnRMmZG5N74uKVV+y+s1t9+ezjUrjstdkspJHv3zP89Qf58X4yQY6u/Lk1/9qjtcATBsCToAAL9AKclFv/VbqW9rq3ibziVL8shtn8vg4MBx+z62b34qj992uxfkJHj8ttvz9IP3GwQAw5ZTrgBgmBkzdnKmXPfctM6cmcaxY1PXMiJVNWfen+yhgYEMHD6cI3v3Zs+qVdnxwEPZtWVD+k/BESpnXX1tJl58yVF973e98VdPyNEdK798WyZedVVGzZrlh+UE2bduXVZ8+fYc7NxqGAAMW4IOAJxCVaWqtEyalDHTZ2Xqdddlzmtfm4b2doP5OY50dWXTt7+dx7/ylexcvzaHd+3K0Ak+KaZ13Lhc8Ou/npEzZlS0fmhgII/91V+mq3v3Cfl+dqxYmR+885256iMfyejzzz+qU8D4BcrlHNi0KT945zuzc8UKp1sBMKwJOgBwitQ1j0jH1BlZ8Ja3ZMaLX5z6UW2G8gs0tLVlzk035axXviIr/vqv8+S3vpnd69el70jPCfl6VVXVmf/amzJ63vyKj5Lav+7JPPGtO0/YDAaHBrNtzYo88JE/ytUf+eOMmDIlpSpn0T9b5aGhdG/ZkpV/97fZtmZFBocGDQWAYc1ffwA4BeqamjLreS/I1f/rDzP3da8Xc45STUNjFvz6b+TaP/1YZl5zfepHtJyQr9M6fmLOuuElaRwzpqL1g0eOZPXtt6dr06YT+vz7e49k4/335tG//FS61q7NYF+vneJZKA8Opmvt2jz6l5/Kyi/dnv7eI4YCwPB/P2QEAHDylJKMGDs25950c85/81vSOHqMoRyjqpqajLngglzzZ/87oz79V1n9ja9k/5bNx+3xm9o6Mv+mm9I2d07FpzVt+Na38uRd307P/n0n/Pn39x7J8ttuzfblj2b2y16eua96dRrGjE6p5N/rKlUeGkrP7t3Z/IMf5LHP/W12rHgsA0MDBgNAIQg6AHASNY8ek3Nf/4ac96ZfFXOOk/r2tsx/wxsyNDSYVf/wpXTv2vGsH7OqVJWpl12Rs17wotQ0NFa0zZGurqz95p3p3r79pD33gaGBbFu+LAe3d+bAxg2Z8pyrM3bRojRPmGDH+AX6Dx7M5rvvzuZ778nm++7LnvVPuGYOAIUi6ADASTTrRTfk3F95U5rGjTOM46hl6tScfePr0rt3b1Z+9csZeJZ3wmoeMzZzX/XqtM2bV9kG5XJ2PPhgtq9cnoGTfPpTOcmBHZ1Zfuvns/XBBzJu4UUZf/4FGXXWWWmZNjX1o9pS3diY6traM3b/KA8OZuDIkRzZszuHO7dn/8aN2bFmZbb88IfZ/fiaDEo5ABSQoAMAJ8mYqWfl0nffksaxYw3jBBg1e3YWvP0d2brsx9m9ds0xf0QfMXZcLvgvb87U666r+ELIe1avzpqvfDndO3eesuc/mHJ2PL46Ox5fnbV3fiMNbaNSN2pUahoaUlVTk1J19Rm7b5SHhlIeGEh/T0/6D3and9++9BzY54cGgEITdADgJCglufy9vy/mnGCtM2Zk7g2/lMN7dufQ7l1HvX1TW0fmv/w1mX/TL6e6oaGibQZ6evL097+bTffek3J5aFjMofdwd3oPdydbt9gpAOA05ap5AHASTF14SaZef71BnOg3NrW1mfOa16R18uRj2n7uDS/Ngre99ajC2/YHlmbDd+46KRdCBgD49/c9RgAAJ95l739/apqaDOIkGDl9emZe+7yj2qa6VMo1v/e+LP7on6Z54sSKtzuyd29WfumObH74QVdhAQBOKqdcAcAJNnJEWyZcculRbbNr+fKs+uxns+Wee3Jo984MZeiMm1tVqtLQ0ppxCy/KRe/57+mYPz9VFV7Yd/pLbsiPPvYnFa1tax+XF33xixm7cOFRfX9DfX3pvP/+rP/Hf7STAwAnnaADACfYlOdeW/Hawb6+rLn18/nh+/4g/eXBM3xyQ+k5sCddd9+V9T/8tyz4L2/Ogre9PS1Tp/7CLTvmn5O21o507d/zU/+9qqo69c0j0jh6dMbOnpdZL39Zpl53XepGth7VdzbY25st99yTez/wfq8TAHBKCDoAcIK1zT+74rW7H300P3rf76e/PGRw/0F/eTDLP/c3GTVzZs791TdXtM24hYuy/wd3pa6lJbXNzaltacnI0eMzdt78TLrqyky8+urUNjcf0/ezd+3jWfnFL2TPlo1eHADglBB0AOAEa50+o+K1D3zgQ+kVc36m/vJQVn/+CxUHnbPf+MaMvuiCtEyYnMZxY9M8YUJap09/1tcyOrJ3bx74ow/nqbv/zYsCAJwygg4AnGB1I0dWvHb7quUG9gz2bFhX8dqp11+XaS94/nH9+v0HD+bRj38iG+7+QWQ3AOBUcpcrADjRf2zr6ipee6T/iIE9g76BvorXlqqrj/vX3//U+nQuXZqGkSNTnZIXBAA4ZRyhAwAnWKlU+Qf/obKbXz+TUz2dlqnTcu2n/iJ9Bw6kt/tgDmzdkl3LHs3eNauzd/2TObS/y+3LAYCTQtABAKhQfVtb6tvakiTloaEM9PRk2uJrfxJ4Dh7Ivqeeyu7ly7PzkUfS+diyDAh0AMAJIugAAByDUlXVT+6e1dycTJqUJBlz7nmZevXi9O7bl0N7dmXrj+5N531LsmPFcqfTAQDHlaADAHC83lg1NaWmqSnNEyemPcmUqxYnSfoPHcqGf/qnPPnlf8iWhx9MT1+PYQEAz+59hxEAAJxYtc3NmXPjjZlz4405tG1b1tx6a9Z86Y507ejMkKvuAADHwF2uAABOouaJE7PoPe/JL/94WW781rdz4Y1vyLjzF6ShZaThAAAVc4QOAMApUFVTk3GLFmXcokXZt25dVnz2s9n04JIc3Lo1Rw4eMCAA4BkJOgAAp9ioWbNy+Qc/mNmPPZYnv/61bLz3hznY2Zm+w4cMBwD4mQQdAOC01H/oUJ748pdTXVeXUnV1qmpqU1Vbk6qamlTV1Ka2uSnVjQ2paWhMbXNzqhsaUjdyZGqaGlMqnfyz0msaGjL+kksyduHCnL16dbbcd282fv972fLgAxno6/WCAgA//d7BCACA01Hf/v1Z+md/kura/xt0amt/EnNq/0PQaWhITWNjapuaU934k6BT19iUutqGNLSNSl3LyDSMbk9De0caOjrSNG5sSlXVJ/T7rqqpyejzz8+oWbMy/sKFWfP1r+Tpu76XfTu2elEBgH8n6AAAp6WhwcEc3Lv7qLcrpZS6mro0jBqVupEj09Dxf4PO6I40jx2bxoYRGTF5cponTkjThAkZMWFCqurqjv+btKamjL/ssjRPmpTx5y7I43d+LVuWLslg2V2xAABBBwDgp5RTTu9Ab3p370h270ie+n//r5SkurrmJ0fytLSkdkRLmkaOyqiJkzN6wfmZdNVVaT3rrFTX1x+376dlypTMu/nmTL722nQ+sDRLPvTB7Nu13QsFAGc4QQcAoELlJAODAxno2pvDXXuTJFUppbOhMfVLfpjGr/x9RrS0Zcz8czL9xS/KuIsXpar22R+9UyqV0jJlShpHj05d84is/OIX8tTd/5YhR+sAwBlL0AEAeBaGUk7fkcPp2344B7d3ZnepKp2rlmf9vT9I25Spmbjo0ky++uqMPv/8lKqf3fV3ahobM+W5z82IKVMy5vwFefQzf52enm4vAgCcgQQdADjhKj+KonRUq3nGqZeHTsnXHSoPpefA/vQc2J/dax/Pk9+7K1UfKWXyeRdk/s1vzLQXviCNY8Yc8+NX19dn9LnnpuOcczL2vPPzwMf+LNtXPeYFB4AzjKADACdYf3flR1C0tnZk3/49hvZzjGgeWfHavv0Hhs33PZRyNq14JJtueSTNf9ieea98VaZdd33a5sxJy5Qpx/SYpVIpM264Ie3z52f1bbdmxW1fTM/B/Sk7DQsAzghVRgAAJ9aRrn0Vr53+/BcY2DMYf/ElFa89vGPHsHwOh/bvzcOf+2zuevvb8tCffjQ7H344vV1dx/x4rTNmZOE7/1vOfdWNaZ0wKVXV/r0OAM4Egg4AnGAHNz1d8dpz3vzmjJw4ydB+huaO0Zn1ildUvH7vmjXD+vl0d+/LY/9wR779pjdm1W23Zt+6dRns6zumx6ofNSqXvu8PctGvvSNjZs+1swDAGUDQAYATbMeDD1a8dsyCBXn+n30iUy65PHXVdYaXpKaqJlMuvSJX/f77M+MojmB6+l+/U4jn17V7e+758P/Md97xtiz7i09m92OPJcdw2lR1Q0POe9tb89w//mhmLH5uSnYdADi93yMZAQCcWDtWrUx/d3dqR4yoaP3ka65Jqbo625YuzcGdnek/fPiMnV11fX2aO8Zk6tXXZOzCC1Pb3FzRdr1dXdmxekWhnuv2lcuzb9PG7F65Mue/8b9k7KJFFT/ff1cqZdwll+Syd9+Sxva2PP6Nr2XoDNpfGusa0zp7VlpnzkxjR0dqR4xIdV1dUjoD81a5nKH+/gwcPpxDO3eme8vW7F+/Pt379/qlDHCaEHQA4AQ71LUnW++9N9Nf+MKKt5l01VWZcNllObJ3T/oPndlBp6GtLTVNTUe13fYHHsjhI4eK9fk7Sc+B/Vl317+mZ/fuzHnlqzL9+udlxOTJR/1Y4xYtyqVtbRk4fDgbvvvd9A8NnLb7SClJ64RJGXPhhZm84KKfBJ1ZM9PYLugMDfynoLNufbavfiw7Hnwwu59a5456AAUn6ADASfigvuQP/iCTr1mcmobGirerqq1N07jxBniU+g4eyMq/v62w3//g4EA2P7Q0O594PBu/e1eu+IP3p23O7JSqqo/qcVpnzszVf/iRTLzokjz8qT/PwdPwyIwR7aNzwVvemilXXZWR06Y/q9vBn3ZKpVTV1qWutS51raPSNntOplx7beYcOJDurVvz1L9+O2vuuC17tmwyK4CCqv7ABz7wAWMAOHpbltyXLfffZxBUpOfA/jS3tmfcxYsM4wR74stfytpv/WN6Dx4o9PMY6D2Sg9u2pevRFRkxYUJaZ8w46seobRmRUbNmpWXixOx69NH0Hj50WrzGVUkmnH9BLvqv78zc17w2rTPOqviUxjP+zX99fRrHjEn73LkZe975ycBA9q59/JQdrTP5iisz+YorvTAAx8AROgBwEgylnIc/86nMuOHFaZk61UBOkO5t27Lmm99I984dp8Xz6e89ks2PPJTDH/j9LK79SCZddfVRbV8qVaWxvSMzX/ay9B/szvIvfiF7Nqwr9EyqUsqs570w5//aWzN2wYLUjRxpxz8GDe3tmfic56R5woQM9RzJ+u/elYEMGgxAof4mAgAnxf7tnfnhb/1OevfvN4wToO/AgTz215/OlounvZEAACAASURBVCX3ZXCg/7R5XoNDA9n55BP5ymtfmfve8z+O/g5YpVLqWkbm/He8Iy/6689m7KzZhb0DVnWqMvXCS/Pcj38ik6+6Ssx5tvOsq0v72WfnuZ/4RBa++ddSV/JvvQBFIugAwEm0adkD+dG7331G37nqRBjo6cnKz3wmK794a4ZO40u9PvSFz+T+970vg729x7T96PPOy4s/f1tmXHxlaqqK9+F9wgULct2n/jwN7e12+uOovq09F/7mb+bcm2/24QCgQPzOBoCTqK+3J2u/88/59i/flD2rVh3zB3N+YmhgIAc2bsw9v3tLHvyLT+ZwT/dp/5yX3fp3+efXvz6dS+/PUP/RH4k0aubMvPhLd+Tq974vrZOnFOZonaZRbVn8Rx9NyzFcS4hfrHHs2Fzwjl/PxIsvTVWNI3UAisBFkQGOkYsic6yGhgZzYOuWHN7amYb2tjSPHZfq2toz89bKz0J/98HsWv5YVt16a1Z96Y70DfadGfvP4GAObNuSvY8+ltHnn5eG9o6j/gBeVVuXcYsWpbmlNYc6t6Vnz94MDQ0N2+dcSrLwpjdl7i/fZMc/gepHjcrQoZ7sWrUyvd0HT8rXdFFkgGMn6AAcI0GHZ6OccvZuWJddjy5Pw4iW1NTVpaaxMdV1dYbzCwz29aZ785Zs+Pa/5OFPfiJPfvfbp/VpVj9z/ymX0717Zw5v3ZamcePSNGbs0e87pVI6zjsvky67IvvXPpm+nkMZGKanAraOHZfnffozqWlq8gNwomc9c2Z2Lns4e9efnItnCzoAx87xlABwqj6UJ9m9YV2+d8vvZPS8szPuoosy8YKL0nrWWRk5Y3oa2tpT3dBwxs9pqL8/Pbt25dC2bdm/YUO2r3osO378cDoffiiDZ1jI+c/7z4Z7fpCuzU/n7Je/Ogve8pbUH8O1ZUbNnp3nfeYz2XrPD7P+X7+dDd//t/Qc2Desnutl735PGjo6/NI4CepbW3PeG96YJ+/6V8MAGOYEHQA4xQZTzo7HV2fH46uz6Xv/9v+CTnt7ahoaUp0z91SsoSQDfX3p2b0rh7Zuy/6NG7L36Q1ncMb5aeUkXRueyoo7vpia2trMfe1r0zRxQkqlo7tMYkNbW2a8+IaMPufctM2clad/+IOfnHbTc+qP2Glsbsn0F73oqLbp3ro1O3/8cPZv2pi+viNn5P5SSlJbU5cRY8dn4tVXpXn8+JSqqyvadvwll2REa3u69+/1QwYwjAk6ADCM7NuxLft2bEvuv/ffP5RVn8HX1hkq54w7nepYHNzRmUc+9zfp2b0r82/+lbTNm3fUj1FVW5vWWbOy4NfemgmLLs7m++7Nhru+k70bn8pA36m7ePfo2fPSOHp0xesPbNiYZX/+8Wz78Y+z/2lBZ8S48Zny0NLMe81rM+bChamp4Ki/utbWTFq4KGt/cJcfLoBhTNABgGGsnGSgLGjwix3ctSOP3Pr5bL7vR7n6f304E59z1TE9Tl1rayZfc03GX3ZZ5r36Ndm1elU2ffeurL3za+k/BfvixCsur3jt4e2d+fZb3pQdq1ed8SGwnKRvoC97t25K19/fli1L7s3iP/rjTL32uoq2P+ulLxV0AIY5ty0HADhNDAz0ZcfaNfm3974nj33qL1MeGjzmx6ppaEjb3Lk564UvyqX//ffyS7d/KQte94aMnjojVSfxqLGR06dXvHbV5z6fHatXOqrrPykn2fv0xjzxla9UvM3oc88xOIBhzhE6AACn2Yf3PU+szff/1/uy85FlueLDf5imseOO/c1iY2Napk1Ly7RpmXLtdRkaHMzBLZuz9ou35env3JVd659MX7n/hD2fpvGVf+8rPv2ZDNkFfu5+sf6b/5Tr/7Ky9SOOIqQBcGo4QgcA4DS1+p+/mW+9+lXZcvfdx+/NY3V1WqdNzyW///t5zY/uya+uWJkXfewvsvDGN2TSzLOP+5vL2qbmitd29x30oj+DI0NHKl5b3zLSwACGOUfoAACcpoZSTueTj+dbb3lTFtz0K5n1ipen45xzU11Xd9y+RkNHR+a+7nWZ+7rXJUkGe3uzf/36dD35ZLo3b0n3li3Zv/np9PR0Z6CvP4NHejLY15fB3r6UBwcy2Nef8uBAhgYGUx4cTLk8lPLQUDJUztDgYEpVlSciJ1pVMJ9yOanwlLmSmQIMa4IOAMBprvdQdx7+7KfT+fBDueid/y1jL7wgDaNHp6r6+L8VrK6vT/v8+WmfP/+n/vvQwEB69+/P4e2d6dm9O0f27M3AoUM5sm9/Bg51p//Q4Qwc6clQf38Ge3tTHhzMQM+RNLa2eQEB4GcQdAAAzgCDGcrmZQ9l32/9Zua9/vWZ8fwXZuwFF6SmsfGkfP2qmpo0dnSksaPDiwEAx4GgAwBwBjm4f28e+vSnsvYbX8/sl9yQKVcuzuRrrjlpYQcAOD4EHQCAM9CBHZ155O/+JluXPpCZq1dkwsKLM2bhwtS3thoOABSAoAMAcIYaKifbV61I11PrMubsczPx8sszbfG16TjnnDS0txsQAAxjgg4AwBmut6cnW5Y9lG2PPZK1d349IydMysQLF2XeL9+U1rPOSlVtrSEBwDAj6AAAkOQnd6Lav3VLDm7blt1Prs2GpT9K+8QpmfycqzLrFa9IgwsaA8CwIegAAPBThspD6dm/Lz0r9mXv449n6/JHsvrOr2XSeRdm3MWLMnbhhRk5bXpSKhkWAJwigg4AAD/XQH9fDm7floPbt2Xbww8ln/9MqlLK6KnTM/mKqzLhissz5dprU9/enlJVlYEBwEki6AAAcFSGUs7OTRuyc9OG5Eu3prqUtI+fkjHnL8iEKy5P+9nzM+aCBalrGWlYAHCCCDoAADwrg+VkV+fm7OrcnNXf+ackSVVKaWpoTsvkKWmZMjmN48enaezYjJg8OQ0d7WloHZWqUlWqa2tTVVubUk1Nqqqrf3KUT1V1StVVqaqqStP48amurzdkAPhPBB0AAI67oZTTfaQ73evWpHPdmv/v/1clqSvVpnFUW+paR6Z2xIjUNjamqr4+VXX1qa6vS01DQy767d9J2+zZBgoA/4mgAwDASTeU5Ei5P0e6diZdO3/uunlveIOgAwA/gyvXAQAwjJUrf2PrrlvPqJS4MxnAaUTQAQBg2Brs66t4bVNTi4E9g4b6pqOYe+9RpDQATgVBBwCAYau3q6vitbNf/FIDewaTLr284rWHd+wwMIBhTtABAGDY6t62reK15779bWmubTa0n6Ghuj6zX/7yitfvX7fe0ACGOUEHAIBhq2vtExWvbZszJ4s/+idpqGkwuP+gobo+C9/xXzP5mmsq3mb7Qw8ZHMAw5y5XAAAMW1vv/mHFa0s1NZlz440Zfd55WfFXn86G796VAwf2ZKh85l0NpqpUSlNjSyYtuiSXvu8P0jZ3bko1lb/1X/eVr9r5AIY5QQcAgGFr765t2bt6ddrnz694m/b587P4zz+ZxcZ3TA5u2ZLtW54yCIBhzilXAAAMa0s+9MEM9vYaxEkw1N+flX/7NwYBUACCDgAAw9qGe76f7UuXGsRJsGfVqmy8526DACgAQQcAgGFtsFzO0g//YXr37TOME6j/0KGs+NzfZd/TGw0DoAAEHQAAhr3Njy3Lsr/4RHq7ugzjBOg/dCjrvvmNrPved9J7qNtAAApA0AEAoBAe/9pX8/gdd2Sgp8cwjqOBnp5s/v73s/LWW9Ozd4+BABSEoAMAQCEc2L49y//2s9l0113p73YUyfEw2NeXTd/9bh799F9l+/JHUzYSgMJw23IAAAqhnHK6Orfk7ve/N7MfuD/n3PzGtJ99tsEcoyNdXVn3ja/noU9+PAd2bE9ZzgEoFEEHAIDCKCc5uGN7Vn/9q+lavz4X//a7MvbCC1NdX284R6Fz6dKs/PznsvmhpTm4o1PKASggQQcAgEIpJ+nZvy+bli7Jwfd0ZsqlV2TmDS/JpKuvNpxfYO/q1Vl/55154q5/yf5Nm9LXc9hQAApK0AEAoJAG+nqza+3j2bX28Sy79e/S1tyeaS9+Yaa98AUZNWt2RkwYn9qWkWfsfAZ7enJ4587sXrUy25cuzabvfDedm9bZcQBOE4IOAACnha5De9P1lTvy6FfuMAwATnvucgUAAABQMIIOAAAAQMEIOgAAAAAFI+gAAAAAFIygAwAAAFAwgg4AAABAwQg6AAAAAAUj6AAAAAAUjKADAAAAUDCCDgAAAEDBCDoAAAAABSPoAAAAABSMoAMAAABQMIIOAAAAQMEIOgAAAAAFI+gAAAAAFIygAwAAAFAwgg4AAABAwQg6AAAAAAUj6AAAAAAUTI0RABybkVOmZPIVVxoEABzr39KpUw0B4BiVyuVy2RgAAAAAisMpVwAAAAAFI+gAAAAAFIygAwAAAFAwgg4AAABAwQg6AAAAAAUj6AAAAAAUjKADAAAAUDCCDgAAAEDBCDoAAAAABSPoAAAAABSMoAMAAABQMIIOAAAAQMEIOgAAAAAFI+gAAAAAFEyNEQBAMX31VS87ro/36q9901ABAApC0AGAgtqy5D5DAAA4QznlCgAAAKBgBB0AAACAgnHKFQAAnCSDvb0ZOHwoSVKqqkp1Q0Oq6xsMBoCjJugAnEJbltx3XC9s2z52Yl77/R+koaPjuDzexyeMPilzuOzdt+Syd91ih+CM89VXveykXwuplKS6VEpVSmlobk19e1taJk9Oy9SpaZk+LaPPnp/msePS0NGRpnHjUl1Xd1o87+OtulTKZe+6JRe/63dPyu/3it7Yl0qpSlVqa+pT3zYqTePGpXnChHTMPztt8+ZlxLgJGTFhQhrHjElNU5MfQICCE3QATiN7d27LujvvzDlvfGNKNX7FA/+/cpKBcjlJOX3dXUl3V3ZteipZ8pP/X1tVk1GTpmT8ZZdlxgtekFFnzcyISZNSN3Kk4Q1zP3ldB9PXfziHdh7O3p3bkhWPJHf9S0pJRrS0Zdp112XS4qsz9rwFGTFpYupbRyWlkuEBFJB3+wCnmce//PeZ9JznpG3uXMM4zbWMm5D+Q93p6+7OUMoGwnHRPzSQXZs3ZNfmDXn8q1/OpEWXZubLXpapi6/NyBnTU6quNqQCKic5eLArK+/8albe+dVMOmdBZr3iFZl0xRVpmzM3tc3NhgRQMIIOwGlm5/on8+NPfjzP+eCH0jh6jIGcxp730Y/l8I7tObhtWw4f6MrBzVtyeMeOHN6xIwd37cjg4IAh8az0l4ey8aH78/RD92f8uQty9mtuzIwXvjAtU6caTsFtXbU8natXZETHmMx91asy4/rnZ8yFFwo7AAUi6ACcZvoOH8rmpUuy4Z/+OfPf9CYDOY1Nfd71SZLy4GD6Dh74qaDzwF98PF0bNxgSx0U5SefK5enu7EzXxqcy7+WvzLhLLjGYghsqD+XA7h157NbPZ+fyRzP7ZS/PnFe+2ul1AAUh6ACchg7t3JEnvvmNTHvBC9I8YYKBnOZK1dWpH9WW+lFtyXnnJUlWfv0fBB2Ou4N7dmbVP3wp3Zu35NLfvSUd556bUlWVwRRcb8/hbFq6JAc6t2XgUE9mv+pVaR4/3mAAhjl/gQFOQ4MDA9n26LKs+8bXM9jbayDAcdN3qDvr7/5e7v3g+7P1hz80kNNEOUnX0xtz/8c+mrt/+7fSu3+/oQAMc4IOwCnU2NaeGZdflbZxE4/7L+T+Iz156rt3ZcdDDx3zY8y69nkZPXFqqk7AHVCqUkpz44hMXXhpOmbMsjNwRppy4cUZN2N26kvFutDw0MBAti57KCtvv+3/tHffgXGUB97Hf9tXK616lyz3JndsbGxDElowTkILndATEloOkty9lxBS7y535JKQALlACgkhoQRy1NAxBhuMcbdly0VW732LtH3fP5wjDeMdWZY08vfzl0H7zDzPMzuzO7995nnUuW2b8XYvXqaiKTPktozfweJpOTmasGCxvFk5pvrCHQ4GVPf2W1p76xcV9fs5SQFgDLMkk0mWxQCAURIbHJS/oUHRYFDBznb119Wpb/8Bde3YoZ6afRocCB7V2kVOj0cLrr5OJ9x085AmSO47cEBRv1/B7k711RxUx9at6qveq96GOg0OBgxtK8ObrayKicqfU6ncOXPlnThRnuwcOTMz5Skqljs3hzfEMHri0+eq6e31hsrc1tpFx42wYHOLBrs6FRkIytfcpP6aGvXX1Ki7arf6W5oVCgXHdP3d3kwtvPZ6LbntS7KnpaXe7pYWDXZ1KRoMyNfcrP6DNeqvOajuqir1tTQpNBgc88fOZrHopC//i0788j8f9vruq61VJBjQQHe3undXqW/ffvXt36/m3TvGfPscTpdmrz5HH/vxj2V1OjlZAWAMYg4dABjNi3Ba2mGXF9/5Pz/Txvvvlb+9bcjbjwwMaM/vHlZWUYnmfv7zhstnTzs0cqZAks74y//f8IO7tOG/7zK0rVW//o3KV6zkoAN/Jb2sVOllpZKk0r/721DOs5z8Yjld7g99TcwfVCjoUygeUfwol7sP+X2qevi3mrpqtQoWLUq93aWlSi891OKSYWj3WL2+51ZWvv/fU1ad/f6/7y7JN7Qtp8utnPwjz2kT7u5VOBJWKBHS0f5iG42EteOpP8idl6cV//ZvnKwAMBY/a+gCABjfAr4+7X7qSZWdeqqyp0+X5Rg8PgVgbDj9/vtTDk6Tibh6q/equ6pKB556Wu011fI3NiqeiBvap7+nS/uffkrppaXyFBWNSrsvfPLpYQ2Mn73o06pd/6YSY2Qge+HixbrwyadTO67JpGLBgLp27lL7pk1q3bJJbTt3KNDRpng0anjfu5/5o9x5uZr/+S/I7vFwkgHAGMIcOgBwHGjftlXNb73JfAgA3mex2pRbWanpF12k03/2Pzrl/31NZfMXy+50Gd5W3csvK9DSIo2TJ/ldHq9sNoc5j6vFIkeGVyXLl2vhrbfqjHvu0/Lbv6KKFSfLk5lteHuBzg5VPfG4Wtat46QBgDGGQAcAjgNxJVX1+9+pp3oPnQHgHzi9Xk0551x99Pt3qWTufNnsxsKMrroD6m+oUzwSGRf94crOktXhGBdtcWRkaNYVV+i07/9Acz99idzpGYa30d/YoF0PPqiIz8fJAgBjCIEOABwnWnfv1Pb77x83v6ADGF4Wm015c+bopH/9mspPXCYjD2cmkkm1btigUHf3uOgLd26ebK7xNRGwd0KFln3rmzrla99QZn6hobKxaESN2zap7sUXlUwkOFkAYIwg0AGA40jdmteOahlzAOOcxaKiE0/UlLNWKaPA2E1/7779igQC46IbnFlZstod4+7w2pxOzb7qSi256VY5DD5SFurrU9M76xVsaeE8AYAxgkmRAeA4MjgY1Hs//L7O+sWDcmRkjMs2JqJR+RsbFWhu1mBnpwY7OxUdGFAiEVdcCdlkkdVql8PjUVpBgdLy85VRVipvxcQx84hFoLlZvdXVGmjvUKi3R9HQoBJKyCKLXGnpSsvPl3fSJBXMnyebO800xyYZjyvU06Peffs00N6ucE+PQr5+xZMJJZWURRZZJbnSvXJlZyu9rEwZZWVKLy5mMtaR/HLodqtk6TIVvLlA/tdfSf1929io2MDAuOgDV9b4eeTq71ntDlVec40a163T/tdfSv38VVKtGzeq/b33lFFezokCAGPhM5suAIDjy8G1a7T17h9p6dfvHFftanv3XTW+8ppaNr8nf3+3oj6/ogNBRYMDSkSjSv5VaGCxWGV1OORI98ju8cjp9cqbnaeiRSdowqmnquyUU0a8/hG/X81r31TVgw/K5+vWYFe3osGA4oMhxWPR9+tuczjk8HjkzM6Wt6hIU049U7OvvlrunJwxe2wifp/2P/a4mtavU09rk0LdPYoGA4oNDioWDv/52EgW6VAbnU7Z3W45vV45MjOVkZWrCctP1qSzz1L2jBmyuVycyMdYXmWliubMVd3rryqR4gLYgbZWxUKhcdF+V26OrOPskau/uQFIS9MJt96qQGuzWvfsSrlcd22NGjduUMnJJ8tTUMCJAgCjfT2nCwDg+JKQtP2R32nGZZcre+pU07enfdN7qn74d2rctlkDHe0K9fYpocPP8ZBUUkrGFY/EFY2EpN4eSVKPLGqrrtL+V19S2Zz5mnXF5So9+dgHO8l4XE1r1qjq0d+pY3eV+mvrFD9M/ZNKKhGNKNof0UB/n/rr69RbW6u2HVs157LPaMIZZ4ypZeljAwPa+8gj2vfMH9Xb0KjB7i5Fo5EPOTZ/bmMkrGgkrEFfv9Qs9Vis6txXrb0vP6eyBYu1+PbbGSFwjNlcLqUXFMrucisSHkzteMciSibHx/wqZSefrFX33a9Y6PBtt0jKnFBh2jbmzp6tWZdcovZvV6W8PHsimVDPnj3qq95LoAMAYwCBDgAch4I9Xdrz4K910ne+LYvVnNOpRfr7te/RR7Xt0Yflb2hQeCB4VNtLKKnBvl4N9vXK39Cg5t07VPmp8zX7yivlKSo6Jm2IBgI6+Mwz2vLzn6mn9qCiYWOjG5I6tKTwwddfVV9dnRb39GryJ1aPicfpunbu0M77H1Dt228q0Nqio7nNTyQTCvZ0KdjTpf76enXs2aW5l1yh2VddKY2hAGu8cXq9hyYGTjHQiScTSo6TSdfdeXkqzssb98e35MRlKpw5W23Vu1Mu17OnWj3V1So95WROEgAYZUyKDADHqb2vvKCap54yZd0b17yuJz51tl771h3qqt5z1GHO34uEB9W9b6/W/eA/9ccLzlHt888Nexsifr/e/uadevUrt6m9erfhMOevRcNhte+p0qu3f1EbvvMdDbS3j9qxSSYS2vqjH+qpyy/V9icfle8ow5y/Fw741bx1s1761y9pza23KtzXx8l8jNicTllsttS/VFosEvmaaVisVmVNmaKZF19qqFzA16Pe5vpxs0Q9AJgZgQ4AjCMOA6MVfA112vnrXyjU02OqNja++ppe/tJt6ti/T8d6LEBSUtfBGr321X9R3fPPD9uS7xG/X/uf/IN2PvKwosP4iEokGdP2hx/U5rt/OCqT08YjYVX96ld6976fKNDVccz3t/vpJ/X6DV/QYGcnJ/8xEA0GlYhEU369XXZZ+WppKq7sbBUvWCiHxWaonL+xUZH+fjoQAEYZn7oAMI5cvXGrMvLyU3ptQlJ7dbU2/uf3FDfBRKaxUEi7HnxQa7/1dfnbRnbZ3EBnh9745te17b77FOruPqpthXt7tfuhh7T2a3codgweT4klk9r524fUuWPHiPZRxO/Xxv/8L73z3/+lUHBklq6OxqI6sH6NXrzySvlqa4ctcIOUiMUU7OhQdDD1YNBbWiq7203nmUxafr5yZ8wwVMbfQKADAGMBgQ4AjCMZ5eWadc4FsllT+7U15Pep9q216q6qkjR2b4YT0ag6d2zXtgd/oa6a/aNSh77mRu14+Dc68MzTR/WoQeu772rbAz9TJBk9ZnWNxKOKJ+Ij1jfxUEitb6/X7iceU7C/d0SPSzwRV0v1Lu155BENHmXYhr8YaG9Xb3ODofdR5pQpY2L+Jhjj8HqVXlpqqEy4r3fcrGgGAGZGoAMA48z0Cy5Q/sQpKb/e39io2hf+pHDf2Py1NZlIqL+uTlUPP6Su/XtHtS499bXa/YdH1Xdgv5Jx44FJPBJR1e9+q76O1nHzfkvEYures1vbfvGA/J2jM3dPNBzSvueeUd3LL3OTOUznXOfWreravt1Qudw5lXJmZtKBJmP3eJSWn2+oTLivn3MNAMYAAh0AGGfyKiu15J//Rd78wpReH4tHVf3sU6p57tkxOclloLlZ2356r3b/4bGj2o5Nktvhlv0oV0Vq3bpFW+6+W76GBsNlDz71lGpefWlYPrxtY2R1J19drTbffbdq1705pPIWSQ6rXZ50r1x216GJdYegu/aAdv7mQTWvfZOLwNFIJtWxZYuqfv+wOnZXpVwsPStHEz7yUbnH+cpQ45Hd7ZYrJ8dQmehAUIlolM4DgNG+htMFADDOLuwej0qXLdP01Z/U1od+ldKDVP0N9ap96UUVzpuv/AULxlR7mtat04EX/mR4pSSLpIyCQpWcuEzeiglypafL6UhTLBbWYCAgf2ODWje+q0Bnh6GHzZKSDr76sopPOkkz8y6UMzMrtRugQEBbH/jZkFZ8ssmqrPJy5c2bp8yKiXKme2S12hQJDSrQ3Kz2zZvV11A3rKtJparh9ddV98brhss5nW7lTpuu0pUrlJ6VK4fHo3g4okh0UJ07d6pjxw752o2NZOrcXaW6115RyYrlcnq9XAwMSsbj8jc1accvf6Gmje8qYeDMmPSxU5U9ZYqs9tH5arn78UfV9M76Yd1m5cWXKXPChHF/3K12u+G5j+LJuJJizioAGPXv/XQBAIw/nuJizbnyKjVv3KD26t1HfH1CUt26N+WdOEnLp04dM/NgJGIxbfnRjwzPy+LJyNT01Z/QjIsuVu7MWXJlZcnqcEh/Hv2RiEQU9vnUs7da+598Qvuff05BX+rLXw8OBrXlJz9W/uzZKlm+IqUy+x9/XK1Vxicqdnszteia6zVl9WpllJXLmZUl25/bkojFFPX75auvV8uGd7TlZ/+j/vaRmzA6OjCgrffdo3DE2KMX+dNmaO6lV2jimWcqc2KFbE7X+8cmmUxqsKNdvfv3a+PdP1Tj+rdSDqqisYhq/vS8Ki+7XAWLFnEhMMBXX6fa557T3v/9ozr271UsEk65bFZJmeZec60yyspHrf67H3tk2LdZvnzlcRHoWGy2Q9dHI9fmZFIJJiEHgFFHoAMA4/ELutWqrKlTNemjp6mv5qDC0SPfcEdDg6p78QVVXnyx8ufNf/8GezTVPv+8eprqDJVxuNyae/lnDt1gTpjwgSMGrE6n0vLzVZJ9kjLLJ8idm6ctv/q5IgZW9Olvb1Xdyy+nFugkk9r1818a/j07LStbs885X/M/+zm5C/JleOW2AAAAH9NJREFUsfztk9JWu12unBzlZ2Upc/JkuXNytOOhB9W6ZfOIjNap+eOT6u8wNm+OJydXC6+5XtMuuEDuD3jMw2KxyFNULHdunhbffKtkkerXvZXy9gM9XWp5d4Myp0yWKyv7uDv3Q91dCrZ8eKgXC4UUHRhQ1O9Tz55q9e3bp6btm+VvadVAR7uhkTlpaema+YlPKX/u3FEbnYPh+NAwdr0nygGAsYFPXgAYrxf4tDRNXr1aHXuqVPvmmpTK9LU2q+a555ReXKK0wsJRb8POn92veDL1aMIqiwqnzdDca65V5qRJR7xJsdrt8lZUaM7V16hl3Xo179iS8v4SSurAU09r+Te+ecT9+Ovr1dFQY+z4OZwqX7hYi2655YjHwmK1ypWVpSmf+KRcOTnaev9PVf/2+hE4Pg8Yuvm32x0qnbtQ08477wPDnL85Ng6HSk9arkBTk/yNTeqpr03tuCQTanjtNU087fTjMtB5+/v/JecRRtglEwklYjElYzFFfD5F/AGFAz7DN+lOm1PTV39KlVddLUc6q1sBADDi3/fpAgAYv4qXLlXlpy+Sr7ZW3Y11R74ZTsS16d67lT9vriadterQozCjpHXju6rbttFQmaxJk7T4ttuVOXly6oUsFnknTNCyO76m1+/4V3Xv35dy0e62RtW99KImrTr7Q1/X8PrriiVihtqSM32Gln3tDnkrJqZcxpGRoUkfP0uujAz1Nd6q/saGY3Z8mtauVXPNHkNlcmfO1PI7v57yxLn2tDRN//Sn1Vt3UL0/vTflwKFu/VrNb2pQ9owZx90532Pg/Xs0nO40Lb/tK5r7uc/K4UnnYgsAwChglSsAGOcmrlqlyWevUqoD6qPJpHb89H/Uf6BmVOtd8/gThl5vk1W5JRM08eNnDWl/Zad8RMVTZsnhcBoqd+CJJ4/4mvb33jNcn+IpM5Q/f/6Q2lKyYqW8x3juj/1PGDs+TneaSmbMUd48Y21yeNJVPGe+0nJyUy4TTybVuWMHJ/8x4i0o1ElfvF0LbrqJMAcAgFHECB0AGOecmZmafdElalj7pjr3VSuZwiNF9ds2aedDv9FH/uN7slhHPvtPRKPa9/RThspkTp6kudddJ5vTOeT9Vn72OrXV7lX3vr0plznwp+f1sVDosKvEhPt61W1wHiBJmn31lWP2PRWPRHTg2WeNhQATJmjGZZcMaX85s2YpLT9fA709KZfp3LI1tddV7VK4v/+Y9ZUrK0sFc+aa/jpis9qUOXGipp/6cc257lplTZ3KxRUAgFFGoAMAx4HcOXM1+ZSPyd/aosEUV3Pa++ijWvi5G0blxi3Q0ixfwODKVnn5KjrxxKPab+GiRfIWFRsKdELJqPprapQ3Z84H/r1v/36FAwFD9XA4XCpYOHZXaQo0NioYNtYmT07eocm2h8BTVCRHurGRIP0HD6b0urXfuENNx3C+ofIVK3Xhk0+b/hritrk0/9LPaP4NN8hmcIlrAABwbPDIFQAcBywWiyqvvUaF8+alXGYgHNSWu3+keCg04vXt3Wt8HpDc4nJ5ioqOar+O9HQVTJs5hPoePgDy1TcoNjBgaHuFFVPGzNLxH9je/fsNl8nKL5IrO3vIx8VqcOTVQEcHJ/4wisWiatuyRXWvvqK+AwcUD4fpFAAARhmBDgAcJ7KmTNHiG26U3cDytLuefEx7fvvwyAcGu/cYLlN04pJh2XfREuPb6a6qOuzffAdrFQ0GDW1vwhmnj+n30lCOT9a0oY/0srndhpfEHgz0c9IPo3Ayqr0vPacXbvmCXrrx89p09w/Vf+CAlGQBawAARguPXAHAcaT0lFM08eSPquatN1J6fTyZ1NZfPqBJq1cpo6x8xOoZaGkxXMY7ceKw7DtzCNsZaG097N8GOzsUDxkbzXA04cdICLa1Gi7TvHWT4j+4a8j79DU2Gnq9keXukbpYOKzWXdvVU1ujwc4uVV52mfIXLDQcuA23yksuU+YwTwSeOaGCAw4AGNMIdADgeLrop6XpxC99RW1btyqY4giG7vqDOvDEH7XglptlsdlGpJ4DnZ2Gy6SXlg7LvjPKjG/nwybrDfX0Kh6NGLuRnDhpTL+PBodwfOreWqu6t9aOWB0ZN3JshYMBVT/1R4W6u7Tghs+r5KTlkoHRf8Ot8uJLVb5iJQcGAHB8fbenCwDg+FJ80kk6+evf0Ev/+uWUy1Q9+ZhyK2er4swzR6SOIX+f4TLuvNxh2bc7L894fSODh/+br0+JaNTQ9jIrxvbIgEH/2H+c6XgNdAqmzJA7hfmXErG4Ir5++ZtbFEpGhnaeBv3a/8pLCvt8Ou2Hdw/bKDmM8LmSTCoZjxsqY5VkoesAYNQR6ADAcWjq+eer5DcPqnXPrpRe39tQp6pHHlbJ8uUjMllvQsYfl7GneYZl31a7QzaLRXEDc4MkEgklohFZHf84cW88GUtpqfi/5vB6x/T7ZyjHByNj0c03qziFFdKSiaQSsahig4PyNTfp4HPPqXHNGg1EjE3gHY/H1LR1s2pffUUzL7xIrqwsDoLZxOOGQ2erxSKLhUgHAEYbgQ4AHIecmZma85kr1fX1ryqaQtgQC4fVunWLWt95Z0RG6cSHMNGq3e0anp1bLHLIqrhS/8U6mUgoHg4fJtBJGh4tYk9LG9v3f0yEO2ZlTpqk3MpKQ2UKBgdVvOgEdZ1/vvb84XHVvPayofdsdHBAu3/9G5UsXqKCBQtG9dErDOF8jsUUGxw0VMZqscvCGB0AGHWscgUAx6nJq87WvKuuTfn1vrZW7X7ycfUNYclqo4YSF1isw/eRZvhGJZlU8jAhR2II7RnrgQ5xzvhiT0tT1tSpmnrueTrznvs054ILZTMYyrQd2KN9T/0vy8WbUHxwUKHeXkNlnF6vbC4XnQcAo4xABwCOU+mlpZp10SXKK0p99ar6P72o2mefUyIWO6Z1sw3hF/6YwZWkPkxUxuaTsNhssjmH8eZmjI+A4Xf58cuVk6NFN92qKatWGy7b8OKLGmhroxNNJhoMaqDdWBCXlpMju9tN5wHAKOORKwA4juXOnqWTvvkNvfKV2xUZCB7x9YPRQVU/97/HvF62IfzeEAsGh2X+jmQsppjBQMVqtR7212qb5VAAYugRlmBAjoyxO4+ObRw9UnPhk09zIfg7eXPmaMGV12iwo0NNm99LuVxHfY3ad+5Q/oIFdKKJhHp75DtYY6hMWlHhiMynBgD4cAQ6AHA8fwh4PCpecqJKF56g+rfXKZXZXjr27D7m9XK60w2XiQaDw7LviN9nvL42x2H/ZpVVFllkZCad2MDgmA507BbjXx9yJ0+Vp6SYk84kCpcsUdmKlWrdtlXxeGoj8pKSOnfsoPNMJBGLKdjWJn9rq6Fy6aWlcngJdABg1L+T0QUAcHzLKCtT5aWXKdDepq6aI8+PMxIPA2WUlhou42uoV/b06Ue9b19dvfH65hcd9m8uV7qsNpsS8dQfUwu2tyutsHDMvmc8ufmGyyy8/ErNv+UWTjiTcHq9Kj3hRKXl5SnQ0Z5yuc5tW+k8Exlob1fdyy8pZmDlOrvVruyKSXJlsqIZAIw25tABgOOcxWpV+Uc+osmnnymXJ31M1Cm9pMRwGX9Dw7DseyjbSf+QkSfunGzZPmD1q5Foy7HiKS4yXCbI3Cqmkzl5klzZ2YbKBJqa6TiTSMbj8jXUq/6NNYbKZRQWKau8QhabjU4EgFHGCB0AgDxFxZry8bPUsXO76t9ZP/o3kpMmGi7Tv294Vt/q3bdvCDe+kw/7N3d+vqwupxQaSHl7fQcOjOn3i7eiwni/NtYrHo3K5nBwwplEWn6+HAZD3qE8sjgWDXZ36cCfnlfwCKOTypaepPKTT5bFYjVhG7vV8Nqr6msyFiDnzp6t3MrZnCAAMAYQ6AAAJElFS5eq8uLL1Fm9RwO9PaNal/yFxidVbaverXBfn+ERBX8tHgqpZcvGIdR34WH/ljVlihwZGRrs70t5e02vv65F//RPY/a9UrBokeEyvU0N6t61S4VDKIvR4czMlM1lbHRZOBYZF23319drx4O/VOcR5gxb+sXbVL5ipWTCwSqNa9/Q9ocfMvCwleSwOVQ8f6Hy5szhBAGAMYBHrgAAhz4QHA5NOPVU5U+cKusofzxklJXL6zY2KXCgq0MdW7Yc1X67du2Sr73dUBm3xaHsqVMP+3fvxAo5PB5D22yt2qZ4JDxm3ys5M6bLYXClq4H2djW+8gonmpmuCXa7LFZjSUViRGbZOvYi/T4lotFxe2yjgYC23XuvoaBZkgrmzlPxkiWHXdUPADDCn9V0AQDg/6QVFGj25Zcro6x0VOthczpVtvJkQ2WCLa2qfe55KTn0G8qDzzyjQHOLoTKlJy6VPS3tsH/PnTVLTq+xcGowGFTH1rE7uawjPUPli0401qa+XtW9s079Bw9yopmFxSJZjs+mh/v7FR+ngU4iGtU7d96pjgN7Dd40WFS6eLEKTziBcwMAxggCHQDAX+7frFbNvvJKTf/o6XKnj+6StPNu+JyxG7CBgOo3vaPmdW8NaX8dmzbp4Lo3NOgz9ov1vM99eD09RcXKKTA2yXNSUtX9Px9y3wUaGxXpP4ZzmVgsmnP99cZuIuNxtW/Zovf+/T+UiMU42TCmhXp6lIhExl27YoMDevbc87Tl0d8qnogbKps5oUJTP3mO3Lm5vEEAYIwg0AEA/IOFt9+u3BkzRrUOZR/5iHIyjC2P3V9zUNvv/akSUWM3Ysl4XNvuudfwZMRpVrcmr159xNeVLFtuuP3N1TtV98KfDJcL9/Zq5wM/V/fu3cf0+Ew55xylW4w9dhGJhFS3cb3qX3xxGG9QB9X6zjtqXb+eE3eMiEfNH4REfD4louMreOw/eFCvXHu9are+a7isw+5Uyaw5Kl62jDc4AIwhBDoAgH/gLS/Xki/cIrt1dOfOX/7db8lq4JmPWCKm+s0btPlHP1KguVnJ+If/Ap1MJDTQ1qat9/xEB995U1EDN6JWWTT3+msk65E/Sieu+rjsNmN92Vd7UG/927dV8+zTig0cYYWsZFKxYFD1r7yiV2++SVt++YDiyfgxPTZWu0MrvvtdQ8dHkgJdnXrru9/S1p/8WL76+iMeo39salKDnZ3q2rlTm+/5sf5w9ll6/IJPadtvHhzSCmX4cHaLVRaDxzho8LHFsSjU1T2m57E64nmSSCjc26v+gwfVvG6d3rj9dv3hk6u0b63xeazsTpfKTz5Fy+68UxYrtw4AMKY+p+kCAMAHmbRqlUpnz1ND1ejN5TL1/POU/Z/fU097c8plwsGAtv/mQYV6ezXtvPOVM326XFlZstj+MrlrMh5XxO9X34EDqnnmaVU/9UeFDC63nFVYpMlnrUrptZmTJql4ykw17a9K/YZMUs/BGq3/7rcVD0dUMH+B0vLz5czMlNVmkywWJWJRRQNBBVua1bF9uzbdd4+6avaP2PGZccnF2nTPj9Tb3mqoXE9DnTb99D717j+g2VdcIW95udy5ubJ/wOTRyURC8XBYUb9fYZ9Pg12dqn9jjepfeFFt+3a/PwVv++ZNatv4rrKnTv2bY42j47A6ZbVYDQWEHVu2KHPSpBGtZ2fVrmHdXk9tjWJj6JGriN+vjs2bj3zdSCaViMUUHRxQV1WV2jdtUtuWTfJ1tg95uurcqdM0/8qrlT19OicEAIwxBDoAMEYk43HFBgYUCQQU6e+Xv6lRcYM3FB1bt8qVmSlHerocGRmyezxD/kXV6nRq2Te/oY7rrlYo4BuVPrG53Jp12WXaeN9PFDMweibQ06Vtv/6Fmt56UzMuulh5c+fImZYhu8upRDSm8GBAvdV7tfexR9Wxt1pxQwv3SnabQzMvukTZ01K8wbFYNO/GL6jlS180tApQUlJPY4PWfPX/qXj+QpWdcrLyKivlSE+XxWpV2OdT34Ea1b/wglq2vKdoMnFU/d25bZtcWVly5+XJkZF+xBWOHBkZmn35FXrvvnsUNTiaIdjfox1PPKLWze+p9KTlKl66VJkTK2S12GS1WpWIx5VIJhSLhBXq6lLv3r3qrqpS2+bN8vt6/2F7/S1Nat22RRWnn6H0khJTXgPikYiigYCiwaAiPp+CrW2Gt9F34IDS8wrkysmW0+v90Am7U5GWnS2bw6F4JPVAp+q3D6lw0SJ5J1aktEpWPBxWNBhUNBD4c7tbDddz7TfuGNPHNhGJKNzXp4jPp4jPb7h8T3W1Xrjm6pQ+R8IBv8KxsBLJo19xzOFwafa5F2jy2WfzIQ0AY5AlmUwm6QYAGB3h3j61btiggbZW+VpbFOzuOvTv+nr5m5sUDoWUNBAAeHPylTGhXJ7CInmKCuUtKpEnJ0+eokKVnXKKXNnZhuu4/d57tfbfv6XEUbb1wiefVvmKlYbL9dfWauP3/kO7n/3fIf/CbJFkt9jkyvAqNjioSCw85PZYJM1a9Skt+/odyp4y9dBKQKncrIdDeuGKK3Rg/dqjft9Y/1yRxDB/gmfmFco7sUI5M2bIW1qmzKJSla5Yoaxph1+W3Vdfr03//X3teuLRo36P2CwW2a0OWe0OxaNhxRJxQwFYTmm5lt3+Fc264oqUj8to69i6VX1792mgvU3+3i4NtHdooL1d/qZGBbs6FR4cMLS99MxsZRSXKHPKZKWXlCqrpETpRSXKnjZtSKsTbb37bm3+5QMKdHUYKle2aLEmnX66vMVlyp4+XcVLl/5tu7dsVe/eag20d8jf2/l+uwONjQp0dyoSGjTF8Vv6xdu0/F+++oGjwsK9vWpc84YCbS0Kdrarr65OgaZmBZqa5O/rHvNtc9tdOvHW27Twti/K5mSZcgAYixihAwCjyNfUoA0/uEsDba0KdncbHiny9/y9XfL3dv3lIm+1y52ZJU9Roc6cNFEFQwh0Zl1xuXY/8Zja9+4ZlT7KKCvT7CuvVE9DrVq3bxvSNpKSosm4ov6+o65PVsVEVV59lbzlEwyFBjaXWyfcdrsa39uocOToblYT/9eo4X4/dnfI192h5i2bZLPblZFboKWWf/7QQCejtFSVV12l/uYG1b/z9lHtP55MKh6PSPGhPeria2lW65bNmnLuuYaXih8tux97RA2vvaaBtjaFYkc/Z0vQ16egr0/t+w6dry6nS+lFJao49dQhBTp5lZVyZmZKBgOd5q2b1bFrp9LzC1Rx6un/EOjsfvwR1b/yigbaOxSOm3eumg99PzY2asMP7lKgrVXhgYDM9Auq2+3Roms/p/k3foEwBwDGMGY2A4BRFPb71Va1Q77uzqMOcz5ILBFToK9bHXv3KOz3D2kbrpxczb7oUjkd7lHpI5vTqcKFi7TgmuuVnpc/qscrPTdPMz5xjopOWCyby/hNTsny5ZpyxhkaibEjNsNT2f6teCym/o5W+Ts+/LEfq8Oh/DlzteCzn1d2+YRRPT5xJdW2eZOCLa2muQZ07d+rnqb6YQlzPvAaEwmrp7FOXQeGNmF0/sIFysgrkNVi/CtjNBpRX2uzeupqPrDdvS2N4zbMkaRwwK+ug/sVMlmYk5Gbr7mXXK5Ft/2THCYJRgHgeEWgAwA4omnnnqs5l142avt3er2ads65WnLDjcoqLRuVOmQWFmvRdTdo0Y03HhqxMAQWm01LvvRlzVj9yWNaV3daumZ96jxlFI/MXDJ2j0cTTz9DJ33pn1U4e86ovle7avap+d0NigQCnLjDwFNYpKkfP0ueggI6Y5yzSCqcOVtnfP+HWvrVrw75OgcAGDkEOgCAI9/UFRdr2jnnKLOgaNTqYPd4NOuyy7Xous8pLSt7RPftzszUwus+q8rPXKG0gsKj2lb29Bmaf+1nVX7C0mPTT7Jp2pmrNOuSS+XOzR2xPrK5XJq8+hNacuMt8hYVj9r7JLOkTFkTK2RzODhxh8m0T39aRdNm0RHjWFpahmZ/8jyd/M1va8Jpp8mZlUWnAIAJEOgAAI78YWG3K3/uPFV85KOj+sGRVlCgWZdephNvulWZJaUj8uiSt6hYS264SbOv+Iw8RUcfaNmcThUtXqxlX/6K8qfPHNa62mTVtLPO1oIbb1TBokVypKeP6PFxZWVp0qpVOuXr31TR5BmyjuC7xeV0a/ppZ+qUb31HRYuXyOZ0cuIOE09xseZdf72sJploGkZuBKzKK52oj3z333TS1+5Q2YqVsrnddAwAmASTIgMAUrthzs7WnEsvl7+5SfUb3h61erjz8nTCF/9JMy+8UO9973va9sSjx2xfc84+Ryfdeae8kycP74dvWpomnHaaVhUW6r0f3KX9L/7pqGdQcjicWnrDzZp/801y5eRIkrzp2bJb7YolYiN2fJxer2ZceJEmn322dj7wc711178f0/lD7DaHSmfO1cq7vqfCE06QxcJvVcPNYrFo0urVOudXD+n5665SlAVSx4UpS1ZowS03a8Lpp8tq55YAAMyIqzcAIGXFK1ZodsOl8jU2qbe5YVTrkl5apo/dc69mXHqZ9v7u92qq2qbBjg6F+voMLXX9f6yyyJWZqbTCQpXOmKOZn7lcEz526jFd/jp/7lydcc9PNeH3j2j/yy+o9+AB+VtbDNXek5Wj4hNO0OwLLtTU886T1f6XR41yZ81S49b3FOvvHfHj40jP0Am3365p55+vvY88opo1ryrY2aFQd4+i0aFNhGuR5EzPkKewUJ78fE079UxVfPxM5VXOMc0y5WY2adXZuuTF17Tn979Ty/YtGujqUsTnU2wwpEQsqkQyIaKe0WeVRRaLRTaHUza3W/Y0t5yZmXJ6vcrKK1LFqaeq/KMfVeaUKXQWAJgcgQ4AjCJXVpbKV6wcsX0dLYvVqorTTlOgq0N1a9eM+P4/SOnKlSpduVIt69ep8fU1atuyWf7+HkV9PkUHBhQNDigRjSiZTCqhpCySrBarrHaHHB6P7B6PnJleZWTnqHD+QpV/7FRVnHbayAUfGRmae8PnNPHss9Tw8iva99xTCvb1K9TdrdjAgGKhQSXicSWVlEUW2RyH6u3IzFRGcbEqFi/TnM9+Vhll/zhZdMGiRSpvrNNAb/eQ65dZXnFU7cucNEknfvWrmn7hhWp8fY1a3t2gnuZ6RXw+RYNBxQYGFA9HDrUxeWicktVqk8VqlT3NLZvLLbsnTc7MLKVlpCtv6kxVnH6aSpavkCs72/TXgII5c021n/z587WyslLBtlY1v/mmenbv0UBrm0K+PkUSsQ8MUz9o3yPV7mMts2LiYcPEkby+v3+NluSwWGWzOOTOyZGnqEgZpSXKqZyt3NmzlZaXL4vNxocvAIwTlmSScbMAgPEjHgqpa9cu9VZXy1dfL19dvcL9fYonoookE7JbLLJbHXJ7s+StmCBvRYVyZs5UwcKFsns8o1//cEhdO3ep9Z0N8jfUK9jaqnAoqISSssoqT0aWMidWKGdOpSZ+/CzThRrJeEy+ujr17N6j/tpa+RsaNNjZpejAoGLJyKEbYUeabC6X0ktLlFZYqIyycuXNm6usSZOY3wMAAODPCHQAAAAAAABMhpkDAQAAAAAATIZABwAAAAAAwGQIdAAAAAAAAEyGQAcAAAAAAMBkCHQAAAAAAABMhkAHAAAAAADAZAh0AAAAAAAATIZABwAAAAAAwGQIdAAAAAAAAEyGQAcAAAAAAMBkCHQAAAAAAABMhkAHAAAAAADAZAh0AAAAAAAATIZABwAAAAAAwGQIdAAAAAAAAEyGQAcAAAAAAMBkCHQAAAAAAABMhkAHAAAAAADAZAh0AAAAAAAATIZABwAAAAAAwGQIdAAAAAAAAEyGQAcAAAAAAMBkCHQAAAAAAABMhkAHAAAAAADAZAh0AAAAAAAATIZABwAAAAAAwGQIdAAAAAAAAEyGQAcAAAAAAMBkCHQAAAAAAABMhkAHAAAAAADAZAh0AAAAAAAATIZABwAAAAAAwGQIdAAAAAAAAEyGQAcAAAAAAMBkCHQAAAAAAABMhkAHAAAAAADAZAh0AAAAAAAATIZABwAAAAAAwGQIdAAAAAAAAEyGQAcAAAAAAMBkCHQAAAAAAABMhkAHAAAAAADAZAh0AAAAAAAATIZABwAAAAAAwGQIdAAAAAAAAEyGQAcAAAAAAMBkCHQAAAAAAABMhkAHAAAAAADAZAh0AAAAAAAATIZABwAAAAAAwGQIdAAAAAAAAEyGQAcAAAAAAMBkCHQAAAAAAABMhkAHAAAAAADAZAh0AAAAAAAATIZABwAAAAAAwGQIdAAAAAAAAEyGQAcAAAAAAMBkCHQAAAAAAABMhkAHAAAAAADAZAh0AAAAAAAATIZABwAAAAAAwGQIdAAAAAAAAEyGQAcAAAAAAMBkCHQAAAAAAABMhkAHAAAAAADAZAh0AAAAAAAATIZABwAAAAAAwGQIdAAAAAAAAEyGQAcAAAAAAMBkCHQAAAAAAABMhkAHAAAAAADAZAh0AAAAAAAATIZABwAAAAAAwGQIdAAAAAAAAEyGQAcAAAAAAMBkCHQAAAAAAABMhkAHAAAAAADAZAh0AAAAAAAATIZABwAAAAAAwGQIdAAAAAAAAEyGQAcAAAAAAMBkCHQAAAAAAABMhkAHAAAAAADAZAh0AAAAAAAATIZABwAAAAAAwGQIdAAAAAAAAEyGQAcAAAAAAMBkCHQAAAAAAABMhkAHAAAAAADAZAh0AAAAAAAATIZABwAAAAAAwGQIdAAAAAAAAEyGQAcAAAAAAMBkCHQAAAAAAABMhkAHAAAAAADAZAh0AAAAAAAATIZABwAAAAAAwGQIdAAAAAAAAEyGQAcAAAAAAMBkCHQAAAAAAABMhkAHAAAAAADAZAh0AAAAAAAATIZABwAAAAAAwGQIdAAAAAAAAEyGQAcAAAAAAMBkCHQAAAAAAABMhkAHAAAAAADAZAh0AAAAAAAATOb/A3OLSYjsXOPNAAAAAElFTkSuQmCC;clipPath=inset(12.5% 29.33% 13.69% 29%);" vertex="1" parent="1">
          <mxGeometry x="588" y="221.68" width="85" height="84.32" as="geometry" />
        </mxCell>
      </root>
    </mxGraphModel>
  </diagram>
</mxfile>
